<svg width="40" height="40" viewBox="0 0 40 40" fill="none" xmlns="http://www.w3.org/2000/svg">
<path d="M10 36.6666V6.66659C10 6.21659 10 5.74992 10.1167 5.29992C10.2187 4.85096 10.4446 4.43962 10.7686 4.11259C11.0927 3.78557 11.502 3.55599 11.95 3.44992C12.4333 3.33325 14.55 3.33325 15 3.33325H26.6667C27.1167 3.33325 27.5833 3.33325 28.0333 3.44992C28.4823 3.55193 28.8936 3.7778 29.2207 4.10188C29.5477 4.42595 29.7773 4.83524 29.8833 5.28325C30 5.74992 30 6.21659 30 6.66659V36.6666H10Z" stroke="#036635" stroke-width="2" stroke-linecap="round" stroke-linejoin="round"/>
<path d="M3.33336 23.3333V33.3333C3.33336 35.1667 4.83336 36.6667 6.66669 36.6667H10V20H6.66669C6.21669 20 5.75002 20 5.30002 20.1167C4.85002 20.2333 4.43336 20.45 4.10002 20.7833C3.78336 21.1 3.56669 21.5167 3.45002 21.9667C3.35594 22.4158 3.31676 22.8747 3.33336 23.3333Z" stroke="#036635" stroke-width="2" stroke-linecap="round" stroke-linejoin="round"/>
<path d="M34.7 15.1167C34.2508 15.0226 33.7919 14.9835 33.3333 15H30V36.6667H33.3333C34.2174 36.6667 35.0652 36.3155 35.6904 35.6904C36.3155 35.0653 36.6667 34.2174 36.6667 33.3334V18.3334C36.6667 17.8667 36.6667 17.4167 36.55 16.9667C36.4333 16.5167 36.2167 16.1 35.8833 15.7667C35.5667 15.45 35.15 15.2334 34.7 15.1167Z" stroke="#036635" stroke-width="2" stroke-linecap="round" stroke-linejoin="round"/>
<path d="M16.6667 10H23.3334" stroke="#036635" stroke-width="2" stroke-linecap="round" stroke-linejoin="round"/>
<path d="M16.6667 16.6667H23.3334" stroke="#036635" stroke-width="2" stroke-linecap="round" stroke-linejoin="round"/>
<path d="M16.6667 23.3333H23.3334" stroke="#036635" stroke-width="2" stroke-linecap="round" stroke-linejoin="round"/>
<path d="M16.6667 30H23.3334" stroke="#036635" stroke-width="2" stroke-linecap="round" stroke-linejoin="round"/>
</svg>
