<svg width="40" height="40" viewBox="0 0 40 40" fill="none" xmlns="http://www.w3.org/2000/svg">
<path d="M28.3333 13.3334H30C31.7681 13.3334 33.4638 14.0358 34.7141 15.286C35.9643 16.5362 36.6667 18.2319 36.6667 20C36.6667 21.7682 35.9643 23.4638 34.7141 24.7141C33.4638 25.9643 31.7681 26.6667 30 26.6667H28.3333" stroke="#7F4F24" stroke-width="2" stroke-linecap="round" stroke-linejoin="round"/>
<path d="M5 13.3334H28.3333V28.3334C28.3333 30.1015 27.631 31.7972 26.3807 33.0474C25.1305 34.2977 23.4348 35 21.6667 35H11.6667C9.89856 35 8.20286 34.2977 6.95262 33.0474C5.70238 31.7972 5 30.1015 5 28.3334V13.3334Z" stroke="#7F4F24" stroke-width="2" stroke-linecap="round" stroke-linejoin="round"/>
<path d="M10 3.33337V6.66671" stroke="#7F4F24" stroke-width="2" stroke-linecap="round" stroke-linejoin="round"/>
<path d="M16.6667 3.33337V6.66671" stroke="#7F4F24" stroke-width="2" stroke-linecap="round" stroke-linejoin="round"/>
<path d="M23.3333 3.33337V6.66671" stroke="#7F4F24" stroke-width="2" stroke-linecap="round" stroke-linejoin="round"/>
</svg>
